
Genre:Animation | Action | Adventure
Language:English
 
http://www.imdb.com/title/tt1667903/

Source:BluRay.1080p.DTS.x264-CHD
Subtitles:Romana/English


Format : AVI
Format/Info : Audio Video Interleave
File size : 893 MiB
Duration : 1h 16mn
Overall bit rate : 1 623 Kbps

Video
ID : 0
Format : MPEG-4 Visual
Format profile : Advanced Simple@L5
Format settings, BVOP : Yes
Format settings, QPel : No
Format settings, GMC : No warppoints
Format settings, Matrix : Default (H.263)
Codec ID : XVID
Codec ID/Hint : XviD
Duration : 1h 16mn
Bit rate : 1 166 Kbps
Width : 640 pixels
Height : 360 pixels
Display aspect ratio : 16:9
Frame rate : 23.976 fps
Color space : YUV
Chroma subsampling : 4:2:0
Bit depth : 8 bits
Scan type : Progressive
Bits/(Pixel*Frame) : 0.211
Stream size : 642 MiB (72%)
Writing library : XviD 1.2.1 (UTC 2008-12-04)

Audio
ID : 1
Format : AC-3
Format/Info : Audio Coding 3
Mode extension : CM (complete main)
Codec ID : 2000
Duration : 1h 16mn
Bit rate mode : Constant
Bit rate : 448 Kbps
Channel(s) : 6 channels
Channel positions : Front: L C R, Side: L R, LFE
Sampling rate : 48.0 KHz
Bit depth : 16 bits
Stream size : 247 MiB (28%)
Alignment : Aligned on interleaves
Interleave, duration : 42 ms (1.00 video frame)
Interleave, preload duration : 512 ms


Plot:
The young Norse god Thor embarks on a quest with his brother Loki to find and recover a legendary sword.
 
http://www.pix2links.com/images/17329912225916776968.png
 
http://www.pix2links.com/images/71769054363899815241.png
 
http://www.pix2links.com/images/99040357918990711475.png
 
http://www.pix2links.com/images/27070055862700980856.png